<svg id="visual" viewBox="0 0 1000 100" width="1000" height="100" xmlns="http://www.w3.org/2000/svg" xmlns:xlink="http://www.w3.org/1999/xlink" version="1.1"><rect x="0" y="0" width="1000" height="100" fill="#FFFFFF"></rect><path d="M0 48L143 48L143 63L286 63L286 53L429 53L429 58L571 58L571 57L714 57L714 62L857 62L857 53L1000 53L1000 49L1000 0L1000 0L857 0L857 0L714 0L714 0L571 0L571 0L429 0L429 0L286 0L286 0L143 0L143 0L0 0Z" fill="#ffffff"></path><path d="M0 47L143 47L143 34L286 34L286 52L429 52L429 41L571 41L571 51L714 51L714 34L857 34L857 43L1000 43L1000 43L1000 0L1000 0L857 0L857 0L714 0L714 0L571 0L571 0L429 0L429 0L286 0L286 0L143 0L143 0L0 0Z" fill="#c6eaf5"></path><path d="M0 22L143 22L143 26L286 26L286 30L429 30L429 37L571 37L571 28L714 28L714 31L857 31L857 22L1000 22L1000 28L1000 0L1000 0L857 0L857 0L714 0L714 0L571 0L571 0L429 0L429 0L286 0L286 0L143 0L143 0L0 0Z" fill="#85d4eb"></path><path d="M0 21L143 21L143 12L286 12L286 15L429 15L429 19L571 19L571 9L714 9L714 10L857 10L857 17L1000 17L1000 9L1000 0L1000 0L857 0L857 0L714 0L714 0L571 0L571 0L429 0L429 0L286 0L286 0L143 0L143 0L0 0Z" fill="#06bee1"></path></svg>