<svg id="visual" viewBox="0 0 1000 100" width="1000" height="100" xmlns="http://www.w3.org/2000/svg" xmlns:xlink="http://www.w3.org/1999/xlink" version="1.1"><rect x="0" y="0" width="1000" height="100" fill="#FFFFFF"></rect><path d="M0 52L143 52L143 32L286 32L286 46L429 46L429 39L571 39L571 41L714 41L714 39L857 39L857 41L1000 41L1000 31L1000 101L1000 101L857 101L857 101L714 101L714 101L571 101L571 101L429 101L429 101L286 101L286 101L143 101L143 101L0 101Z" fill="#ffffff"></path><path d="M0 48L143 48L143 55L286 55L286 50L429 50L429 59L571 59L571 52L714 52L714 54L857 54L857 56L1000 56L1000 64L1000 101L1000 101L857 101L857 101L714 101L714 101L571 101L571 101L429 101L429 101L286 101L286 101L143 101L143 101L0 101Z" fill="#c6eaf5"></path><path d="M0 71L143 71L143 74L286 74L286 66L429 66L429 66L571 66L571 63L714 63L714 72L857 72L857 65L1000 65L1000 69L1000 101L1000 101L857 101L857 101L714 101L714 101L571 101L571 101L429 101L429 101L286 101L286 101L143 101L143 101L0 101Z" fill="#85d4eb"></path><path d="M0 90L143 90L143 77L286 77L286 88L429 88L429 80L571 80L571 76L714 76L714 86L857 86L857 90L1000 90L1000 84L1000 101L1000 101L857 101L857 101L714 101L714 101L571 101L571 101L429 101L429 101L286 101L286 101L143 101L143 101L0 101Z" fill="#06bee1"></path></svg>