<svg id="visual" viewBox="0 0 1000 100" width="1000" height="100" xmlns="http://www.w3.org/2000/svg" xmlns:xlink="http://www.w3.org/1999/xlink" version="1.1"><path d="M0 47L143 47L143 53L286 53L286 57L429 57L429 60L571 60L571 48L714 48L714 59L857 59L857 48L1000 48L1000 57L1000 101L1000 101L857 101L857 101L714 101L714 101L571 101L571 101L429 101L429 101L286 101L286 101L143 101L143 101L0 101Z" fill="#e0e0e0"></path><path d="M0 71L143 71L143 73L286 73L286 72L429 72L429 57L571 57L571 68L714 68L714 57L857 57L857 58L1000 58L1000 69L1000 101L1000 101L857 101L857 101L714 101L714 101L571 101L571 101L429 101L429 101L286 101L286 101L143 101L143 101L0 101Z" fill="#efefef"></path><path d="M0 88L143 88L143 85L286 85L286 74L429 74L429 89L571 89L571 88L714 88L714 84L857 84L857 89L1000 89L1000 87L1000 101L1000 101L857 101L857 101L714 101L714 101L571 101L571 101L429 101L429 101L286 101L286 101L143 101L143 101L0 101Z" fill="#ffffff"></path></svg>