<svg id="visual" viewBox="0 0 900 100" width="900" height="100" xmlns="http://www.w3.org/2000/svg" xmlns:xlink="http://www.w3.org/1999/xlink" version="1.1"><path d="M0 31L90 31L90 38L180 38L180 38L270 38L270 31L360 31L360 29L450 29L450 28L540 28L540 37L630 37L630 36L720 36L720 27L810 27L810 35L900 35L900 36L900 101L900 101L810 101L810 101L720 101L720 101L630 101L630 101L540 101L540 101L450 101L450 101L360 101L360 101L270 101L270 101L180 101L180 101L90 101L90 101L0 101Z" fill="#ffffff"></path><path d="M0 45L90 45L90 52L180 52L180 47L270 47L270 44L360 44L360 50L450 50L450 47L540 47L540 51L630 51L630 50L720 50L720 48L810 48L810 50L900 50L900 54L900 101L900 101L810 101L810 101L720 101L720 101L630 101L630 101L540 101L540 101L450 101L450 101L360 101L360 101L270 101L270 101L180 101L180 101L90 101L90 101L0 101Z" fill="#a3a5b1"></path><path d="M0 60L90 60L90 69L180 69L180 63L270 63L270 61L360 61L360 62L450 62L450 70L540 70L540 61L630 61L630 68L720 68L720 66L810 66L810 63L900 63L900 65L900 101L900 101L810 101L810 101L720 101L720 101L630 101L630 101L540 101L540 101L450 101L450 101L360 101L360 101L270 101L270 101L180 101L180 101L90 101L90 101L0 101Z" fill="#4f5469"></path><path d="M0 81L90 81L90 81L180 81L180 78L270 78L270 82L360 82L360 76L450 76L450 85L540 85L540 76L630 76L630 78L720 78L720 79L810 79L810 79L900 79L900 79L900 101L900 101L810 101L810 101L720 101L720 101L630 101L630 101L540 101L540 101L450 101L450 101L360 101L360 101L270 101L270 101L180 101L180 101L90 101L90 101L0 101Z" fill="#010d28"></path></svg>