<svg id="visual" viewBox="0 0 900 100" width="900" height="100" xmlns="http://www.w3.org/2000/svg" xmlns:xlink="http://www.w3.org/1999/xlink" version="1.1"><path d="M0 64L7.2 64.8C14.3 65.7 28.7 67.3 43 67.8C57.3 68.3 71.7 67.7 86 69.3C100.3 71 114.7 75 128.8 74.7C143 74.3 157 69.7 171.2 67.3C185.3 65 199.7 65 214 68.3C228.3 71.7 242.7 78.3 257 78.2C271.3 78 285.7 71 300 68.5C314.3 66 328.7 68 343 70.5C357.3 73 371.7 76 386 78.8C400.3 81.7 414.7 84.3 428.8 85.8C443 87.3 457 87.7 471.2 84.5C485.3 81.3 499.7 74.7 514 74.5C528.3 74.3 542.7 80.7 557 80.3C571.3 80 585.7 73 600 70.8C614.3 68.7 628.7 71.3 643 74.5C657.3 77.7 671.7 81.3 686 83.3C700.3 85.3 714.7 85.7 728.8 83.5C743 81.3 757 76.7 771.2 73.3C785.3 70 799.7 68 814 66.2C828.3 64.3 842.7 62.7 857 62.5C871.3 62.3 885.7 63.7 892.8 64.3L900 65L900 101L892.8 101C885.7 101 871.3 101 857 101C842.7 101 828.3 101 814 101C799.7 101 785.3 101 771.2 101C757 101 743 101 728.8 101C714.7 101 700.3 101 686 101C671.7 101 657.3 101 643 101C628.7 101 614.3 101 600 101C585.7 101 571.3 101 557 101C542.7 101 528.3 101 514 101C499.7 101 485.3 101 471.2 101C457 101 443 101 428.8 101C414.7 101 400.3 101 386 101C371.7 101 357.3 101 343 101C328.7 101 314.3 101 300 101C285.7 101 271.3 101 257 101C242.7 101 228.3 101 214 101C199.7 101 185.3 101 171.2 101C157 101 143 101 128.8 101C114.7 101 100.3 101 86 101C71.7 101 57.3 101 43 101C28.7 101 14.3 101 7.2 101L0 101Z" fill="#010D28" stroke-linecap="round" stroke-linejoin="miter"></path></svg>