<svg id="visual" viewBox="0 0 900 100" width="900" height="100" xmlns="http://www.w3.org/2000/svg" xmlns:xlink="http://www.w3.org/1999/xlink" version="1.1"><path d="M0 41L90 41L90 59L180 59L180 42L270 42L270 48L360 48L360 53L450 53L450 62L540 62L540 57L630 57L630 44L720 44L720 53L810 53L810 67L900 67L900 45L900 101L900 101L810 101L810 101L720 101L720 101L630 101L630 101L540 101L540 101L450 101L450 101L360 101L360 101L270 101L270 101L180 101L180 101L90 101L90 101L0 101Z" fill="#010D28"></path></svg>