<svg id="visual" viewBox="0 0 900 100" width="900" height="100" xmlns="http://www.w3.org/2000/svg" xmlns:xlink="http://www.w3.org/1999/xlink" version="1.1"><path d="M0 74L7.2 75C14.3 76 28.7 78 43 79.8C57.3 81.7 71.7 83.3 86 80.8C100.3 78.3 114.7 71.7 128.8 72.3C143 73 157 81 171.2 82.3C185.3 83.7 199.7 78.3 214 77C228.3 75.7 242.7 78.3 257 80C271.3 81.7 285.7 82.3 300 83.5C314.3 84.7 328.7 86.3 343 83.3C357.3 80.3 371.7 72.7 386 70C400.3 67.3 414.7 69.7 428.8 70.8C443 72 457 72 471.2 74.3C485.3 76.7 499.7 81.3 514 84C528.3 86.7 542.7 87.3 557 83.5C571.3 79.7 585.7 71.3 600 71.3C614.3 71.3 628.7 79.7 643 79.7C657.3 79.7 671.7 71.3 686 70.5C700.3 69.7 714.7 76.3 728.8 77.7C743 79 757 75 771.2 73.2C785.3 71.3 799.7 71.7 814 71.7C828.3 71.7 842.7 71.3 857 70.3C871.3 69.3 885.7 67.7 892.8 66.8L900 66L900 101L892.8 101C885.7 101 871.3 101 857 101C842.7 101 828.3 101 814 101C799.7 101 785.3 101 771.2 101C757 101 743 101 728.8 101C714.7 101 700.3 101 686 101C671.7 101 657.3 101 643 101C628.7 101 614.3 101 600 101C585.7 101 571.3 101 557 101C542.7 101 528.3 101 514 101C499.7 101 485.3 101 471.2 101C457 101 443 101 428.8 101C414.7 101 400.3 101 386 101C371.7 101 357.3 101 343 101C328.7 101 314.3 101 300 101C285.7 101 271.3 101 257 101C242.7 101 228.3 101 214 101C199.7 101 185.3 101 171.2 101C157 101 143 101 128.8 101C114.7 101 100.3 101 86 101C71.7 101 57.3 101 43 101C28.7 101 14.3 101 7.2 101L0 101Z" fill="#ffffff" stroke-linecap="round" stroke-linejoin="miter"></path></svg>