<svg id="visual" viewBox="0 0 900 100" width="900" height="100" xmlns="http://www.w3.org/2000/svg" xmlns:xlink="http://www.w3.org/1999/xlink" version="1.1"><path d="M0 46L90 46L90 42L180 42L180 66L270 66L270 49L360 49L360 59L450 59L450 67L540 67L540 63L630 63L630 43L720 43L720 42L810 42L810 55L900 55L900 42L900 101L900 101L810 101L810 101L720 101L720 101L630 101L630 101L540 101L540 101L450 101L450 101L360 101L360 101L270 101L270 101L180 101L180 101L90 101L90 101L0 101Z" fill="#FFFFFF"></path></svg>